{
  "accessors": [
    {
      "bufferView": 2,
      "componentType": 5126,
      "count": 28160,
      "max": [
        170.42247009277344,
        411.77239990234375,
        36.54292678833008
      ],
      "min": [
        -156.0402374267578,
        0.053197912871837616,
        -42.333091735839844
      ],
      "type": "VEC3"
    },
    {
      "bufferView": 2,
      "byteOffset": 337920,
      "componentType": 5126,
      "count": 28160,
      "max": [
        1.0,
        1.0,
        1.0
      ],
      "min": [
        -1.0,
        -1.0,
        -1.0
      ],
      "type": "VEC3"
    },
    {
      "bufferView": 3,
      "componentType": 5126,
      "count": 28160,
      "max": [
        1.0,
        1.0,
        1.0,
        1.0
      ],
      "min": [
        -1.0,
        -1.0,
        -1.0,
        1.0
      ],
      "type": "VEC4"
    },
    {
      "bufferView": 1,
      "componentType": 5126,
      "count": 28160,
      "max": [
        1.7485178709030151,
        0.9993579387664795
      ],
      "min": [
        -0.8339998722076416,
        0.0011969374027103186
      ],
      "type": "VEC2"
    },
    {
      "bufferView": 0,
      "componentType": 5125,
      "count": 85326,
      "type": "SCALAR"
    },
    {
      "bufferView": 2,
      "byteOffset": 675840,
      "componentType": 5126,
      "count": 24,
      "max": [
        159.72314453125,
        380.3973388671875,
        12.853140830993652
      ],
      "min": [
        132.6143798828125,
        340.7426452636719,
        -12.772038459777832
      ],
      "type": "VEC3"
    },
    {
      "bufferView": 2,
      "byteOffset": 676128,
      "componentType": 5126,
      "count": 24,
      "max": [
        0.8647715449333191,
        -0.07518944889307022,
        0.9971663355827332
      ],
      "min": [
        -0.864770770072937,
        -0.07519054412841797,
        -0.9971663355827332
      ],
      "type": "VEC3"
    },
    {
      "bufferView": 1,
      "byteOffset": 225280,
      "componentType": 5126,
      "count": 24,
      "max": [
        0.6777253150939941,
        0.6494361758232117
      ],
      "min": [
        0.1714802384376526,
        0.012455867603421211
      ],
      "type": "VEC2"
    },
    {
      "bufferView": 0,
      "byteOffset": 341304,
      "componentType": 5125,
      "count": 36,
      "type": "SCALAR"
    }
  ],
  "asset": {
    "extras": {
      "author": "Yulya (https://sketchfab.com/yulya_3d)",
      "license": "CC-BY-4.0 (http://creativecommons.org/licenses/by/4.0/)",
      "source": "https://sketchfab.com/3d-models/forged-street-pack-28a5072d83f84ef4917896fa9c5c1a4d",
      "title": "Forged Street Pack"
    },
    "generator": "Sketchfab-12.68.0",
    "version": "2.0"
  },
  "bufferViews": [
    {
      "buffer": 0,
      "byteLength": 341448,
      "name": "floatBufferViews",
      "target": 34963
    },
    {
      "buffer": 0,
      "byteLength": 225472,
      "byteOffset": 341448,
      "byteStride": 8,
      "name": "floatBufferViews",
      "target": 34962
    },
    {
      "buffer": 0,
      "byteLength": 676416,
      "byteOffset": 566920,
      "byteStride": 12,
      "name": "floatBufferViews",
      "target": 34962
    },
    {
      "buffer": 0,
      "byteLength": 450560,
      "byteOffset": 1243336,
      "byteStride": 16,
      "name": "floatBufferViews",
      "target": 34962
    }
  ],
  "buffers": [
    {
      "byteLength": 1693896,
      "uri": "scene.bin"
    }
  ],
  "images": [
    {
      "uri": "textures/Texture_baseColor.png"
    },
    {
      "uri": "textures/Texture_metallicRoughness.png"
    },
    {
      "uri": "textures/Texture_normal.png"
    }
  ],
  "materials": [
    {
      "doubleSided": true,
      "name": "Texture",
      "normalTexture": {
        "index": 2
      },
      "pbrMetallicRoughness": {
        "baseColorTexture": {
          "index": 0
        },
        "metallicRoughnessTexture": {
          "index": 1
        },
        "roughnessFactor": 0.8239417257461427
      }
    },
    {
      "doubleSided": true,
      "emissiveFactor": [
        1.0,
        1.0,
        1.0
      ],
      "name": "Glass",
      "pbrMetallicRoughness": {
        "metallicFactor": 0.0,
        "roughnessFactor": 0.6839999999999999
      }
    }
  ],
  "meshes": [
    {
      "name": "Lamp_Texture_0",
      "primitives": [
        {
          "attributes": {
            "NORMAL": 1,
            "POSITION": 0,
            "TANGENT": 2,
            "TEXCOORD_0": 3
          },
          "indices": 4,
          "material": 0,
          "mode": 4
        }
      ]
    },
    {
      "name": "Lamp_Glass_0",
      "primitives": [
        {
          "attributes": {
            "NORMAL": 6,
            "POSITION": 5,
            "TEXCOORD_0": 7
          },
          "indices": 8,
          "material": 1,
          "mode": 4
        }
      ]
    }
  ],
  "nodes": [
    {
      "children": [
        1
      ],
      "matrix": [
        0.009999999776482582,
        0.0,
        0.0,
        0.0,
        0.0,
        2.2204459996194763e-18,
        -0.009999999776482582,
        0.0,
        0.0,
        0.009999999776482582,
        2.2204459996194763e-18,
        0.0,
        0.0,
        0.0,
        0.0,
        1.0
      ],
      "name": "Sketchfab_model"
    },
    {
      "children": [
        2
      ],
      "matrix": [
        1.0,
        0.0,
        0.0,
        0.0,
        0.0,
        0.0,
        1.0,
        0.0,
        0.0,
        -1.0,
        0.0,
        0.0,
        0.0,
        0.0,
        0.0,
        1.0
      ],
      "name": "forged_street_pack.fbx"
    },
    {
      "children": [
        3
      ],
      "name": "RootNode"
    },
    {
      "children": [
        4,
        5
      ],
      "name": "Lamp"
    },
    {
      "mesh": 0,
      "name": "Lamp_Texture_0"
    },
    {
      "mesh": 1,
      "name": "Lamp_Glass_0"
    }
  ],
  "samplers": [
    {
      "magFilter": 9729,
      "minFilter": 9987,
      "wrapS": 10497,
      "wrapT": 10497
    }
  ],
  "scene": 0,
  "scenes": [
    {
      "name": "Sketchfab_Scene",
      "nodes": [
        0
      ]
    }
  ],
  "textures": [
    {
      "sampler": 0,
      "source": 0
    },
    {
      "sampler": 0,
      "source": 1
    },
    {
      "sampler": 0,
      "source": 2
    }
  ]
}
